<svg xmlns="http://www.w3.org/2000/svg" viewBox="0 0 877.74 922.86"><defs><style>.cls-1{fill:none;fill-rule:evenodd;}</style></defs><g id="Layer_2" data-name="Layer 2"><g id="Layer_1-2" data-name="Layer 1"><path class="cls-1" d="M309.74,713.25c28.5,10.59,59.89,10.46,83,3,.53,20.84-8,85.12,35,93,52.19,9.57,119.55-217.49,89-222-19-2.81-31.35,93.08-33,122s-10.31,98.26,37,95,70.81-106.87,66-107-50.27,96.61-2,101c28.3,2.57,61.17-133.44,117-88-32.71-25.09-56.12,17.52-64,29s-29.65,57.82,39,65c59.91,6.26,143.46-238.25,110-246-13.72-3.18-51,204-51,204s89.71-36.81,64-64c-21.68-22.92-54,41.72-64,63,82.54,3.39,66.14,116,126,122"/><path class="cls-1" d="M374.74,563.25c-47.63-65.82-222.39-88.45-256,137-14.41,96.58,45.87,170,124,173s134.13-67.34,144-144c-12.35,57.87-53.33,183.51,186,193s305-94,305-94"/><path class="cls-1" d="M468.74,315.25c17.55-1.55,73.71-28.7,53-41-26.91-16-83.33,25.31-59,66,18.73,31.33,49.25,30.17,84,3"/><path class="cls-1" d="M293.74,239.25c.52,6.73-7,14-7,14"/><path class="cls-1" d="M596.74,660.25c.52,6.73-7,14-7,14"/><path class="cls-1" d="M438.74,229.25c.52,6.73-7,14-7,14"/><path class="cls-1" d="M168.74,316.25c17.09-1.08,72.64-26.33,56-44s-66.41,9.35-62,58,91.27,66.65,122-54c1-3.93-55.72,73.24-13,91s79.63-110.32,87-141,20.7-98.79,10-99-25.87,78.56-33,112-13.54,86.85-21,110c10.47-14.72,31.74-23.27,44-37s29-31.5,18-38-48.77,34.6-53,61c16,8.41,32.44,31.83,47,33,26.81,2.15,40.57-12.47,53-60,5.24-20.08,8-36,8-36s-51.44,89.8-2,95c17.28,1.82,32-18,32-18"/><path class="cls-1" d="M133.74,6.25c7.23-6.82,38.16-14.45,47,15,12.63,42.15-87.13,399.11-164,390-27.9-5.28-16.46-42.46,2-57,26.13-20.6,69.19,7.86,88,17,10.6,5.15,97.88,58.83,220.63,74.84,132.28,17.26,178.43-8.86,280.37-75.84"/></g></g></svg>